<svg xmlns="http://www.w3.org/2000/svg" viewBox="0 0 1080 1080"><defs><style>.cls-1,.cls-5{fill:none;}.cls-1{stroke:#ffefca;stroke-linecap:round;stroke-miterlimit:10;stroke-width:11px;}.cls-2{fill:#ffc38d;}.cls-3{fill:#f2a96d;}.cls-4{fill:#b9eadb;}.cls-6{fill:#e8d780;}.cls-7{fill:#fff;opacity:0.44;}.cls-8{fill:#f7e8aa;}.cls-9{fill:#ffcfc5;}.cls-10{fill:#bbb9f9;}.cls-11{fill:#9a9aef;}.cls-12{fill:#dcfff9;}.cls-13{opacity:0.46;}.cls-14,.cls-17{fill:#7c5e52;}.cls-14{opacity:0.19;}.cls-15{fill:#ffefca;}.cls-16{fill:#f7dbaa;}.cls-18{fill:#dbe5a3;}.cls-19{fill:#c9d887;}.cls-20{fill:#dff4e8;}</style></defs><g id="Basket_Back" data-name="Basket Back"><line class="cls-1" x1="772.51" y1="441.95" x2="722.12" y2="764.5"/><line class="cls-1" x1="301.75" y1="435.12" x2="352.86" y2="771.08"/><path class="cls-2" d="M319.6,856.48c2,8.85,7.25,25.33,14.81,31,44.85,33.42,112.45,46.18,188.08,46.18,76.8,0,145.32-18.13,190.15-52.44,7.29-5.58,12.35-17.12,14.4-25.73,9.48-39.8,17.85-78.72,18.23-89L607.91,786.72l-2.09-.08-.53.08-82.06-3.27-222-8.57C302,778.48,310.52,817.15,319.6,856.48Z"/><ellipse class="cls-2" cx="522.51" cy="757.69" rx="223.02" ry="124.31"/><ellipse class="cls-3" cx="522.51" cy="751.2" rx="207.46" ry="104.74"/></g><g id="Egg_4" data-name="Egg 4"><path class="cls-4" d="M648.11,597.33c18.18,1.74,65.24,60.53,52.62,120.42S626.39,784,599.18,764.91s-36.16-53-24.72-92.65S621.61,594.79,648.11,597.33Z"/><path class="cls-5" d="M690.84,664.59a5.56,5.56,0,0,0,.43-.5,30.36,30.36,0,0,1-5.3,2.23,27.62,27.62,0,0,1-3.31.83C685.76,667.31,688.78,666.64,690.84,664.59Z"/><path class="cls-6" d="M616.05,747.48h0l.15,0v0Z"/><ellipse class="cls-7" cx="655.77" cy="644.22" rx="15.04" ry="30.62" transform="translate(-225.22 381.72) rotate(-27.9)"/></g><g id="Egg_3" data-name="Egg 3"><path class="cls-8" d="M682.1,702.12c17,3.26,56.26,63,39,118.45S645,876.53,621,856.12s-29.47-53.31-15.14-89.75S657.29,697.36,682.1,702.12Z"/><ellipse class="cls-7" cx="685.41" cy="744.64" rx="15.04" ry="30.62" transform="translate(-268.76 407.26) rotate(-27.9)"/></g><g id="Egg_2" data-name="Egg 2"><path class="cls-9" d="M510.37,580.5c19.27,0,74.63,57,67.41,121.2s-71.43,77-101.92,59.78-43.34-52.05-35.31-94.85S482.28,580.5,510.37,580.5Z"/><ellipse class="cls-7" cx="521.24" cy="624.84" rx="15.04" ry="30.62" transform="translate(-275.21 458.13) rotate(-38.34)"/></g><g id="Egg_1" data-name="Egg 1"><path class="cls-10" d="M558.37,697.1c18.33-1.71,76,47.58,74.82,109.23s-61.06,79.56-91.58,65.85-45.8-45.63-42-87S531.68,699.59,558.37,697.1Z"/><path class="cls-11" d="M607.34,861.62c-61.73-14-92.59-58.83-106.24-86.87-.64,3.47-1.14,7-1.46,10.41-3.83,41.39,11.46,73.32,42,87C559.37,880.16,587.05,877.43,607.34,861.62Z"/><path class="cls-12" d="M554.92,865.18c5.84-2.6,2.59-12.08-3.32-9.45a15.54,15.54,0,0,0-9.6,13.86c1.68.92,3.41,1.79,5.19,2.59a44.71,44.71,0,0,0,6.57,2.34C551.24,871.44,550.68,867.06,554.92,865.18Z"/><ellipse class="cls-7" cx="573.02" cy="743.94" rx="15.04" ry="30.62" transform="translate(-281.5 354.59) rotate(-27.9)"/></g><g id="Basket_Front" data-name="Basket Front"><line class="cls-1" x1="559.65" y1="529.56" x2="547.15" y2="858.58"/><path class="cls-3" d="M723.93,832.21l-120.61,56L331.54,861.56s13.75,76.15,19.41,85.73a1.34,1.34,0,0,0,.36.35c5.69,50,80.17,89.5,171.24,89.5,84.76,0,155.16-34.25,169.09-79.28C698.65,942.75,724.4,849,723.93,832.21Z"/><g class="cls-13"><path class="cls-5" d="M475.84,971.24q19,18.76,39.26,36.14,13.53-17.05,25.7-35.13-19-17.24-37.16-35.3A404,404,0,0,1,475.84,971.24Z"/><path class="cls-5" d="M394,946.1q20.31,27,42.93,52.26,14.6-12.74,27.88-26.87-22.72-22.89-43.45-47.68A300.66,300.66,0,0,1,394,946.1Z"/><path class="cls-5" d="M551.26,971q19.68,17.71,40.13,34.53,11.49-20.36,23-40.72Q594,949,574.66,932,563.74,951.94,551.26,971Z"/><path class="cls-5" d="M347.76,892.52c-2.71-4.4,4.21-8.41,6.91-4q16.26,26.29,34.58,51.18a288.43,288.43,0,0,0,33.33-28c3.69-3.61,9.35,2.05,5.66,5.65-.35.35-.71.68-1.06,1q20.52,24.55,43.05,47.29a391.18,391.18,0,0,0,27.7-34.37l-2.83-2.84c-3.63-3.67,2-9.33,5.66-5.66l1.84,1.85c.21-.31.44-.62.65-.94,2.88-4.23,9.81-.22,6.91,4-.61.89-1.23,1.76-1.84,2.64q18.09,18,36.94,35.17,12.42-19,23.27-39c-1.34-1.21-2.68-2.41-4-3.63-3.81-3.49,1.87-9.13,5.66-5.66q23.24,21.28,48.16,40.52L640,919.35q-5.28-3.93-10.47-8c-4.06-3.15,1.64-8.78,5.65-5.65q5.68,4.41,11.47,8.67a4.49,4.49,0,0,1,1.77,1.3q22.74,16.69,46.91,31.26c11.45-38.23,39-154.62,38.62-169.36L601.11,798.08,312.49,786.46S345.29,937.71,351,947.29a1.34,1.34,0,0,0,.36.35,56.47,56.47,0,0,0,3.26,13.44,294.33,294.33,0,0,0,28.12-16.84Q364.23,919.09,347.76,892.52Z"/><path class="cls-14" d="M646.5,924.12q22.5,16.33,46.34,30.68c.7-2,1.55-4.65,2.5-7.83q-24.14-14.57-46.91-31.26a4.49,4.49,0,0,0-1.77-1.3q-5.77-4.27-11.47-8.67c-4-3.13-9.71,2.5-5.65,5.65q5.19,4,10.47,8l-21.67,38.38q-24.9-19.23-48.16-40.52c-3.79-3.47-9.47,2.17-5.66,5.66,1.33,1.22,2.67,2.42,4,3.63q-10.85,20-23.27,39-18.84-17.19-36.94-35.17c.61-.88,1.23-1.75,1.84-2.64,2.9-4.26-4-8.27-6.91-4-.21.32-.44.63-.65.94l-1.84-1.85c-3.63-3.67-9.29,2-5.66,5.66l2.83,2.84a391.18,391.18,0,0,1-27.7,34.37q-22.51-22.71-43.05-47.29c.35-.34.71-.67,1.06-1,3.69-3.6-2-9.26-5.66-5.65a288.43,288.43,0,0,1-33.33,28Q371,914.79,354.67,888.48c-2.7-4.37-9.62-.36-6.91,4q16.42,26.55,34.93,51.72a294.33,294.33,0,0,1-28.12,16.84,63.21,63.21,0,0,0,3.28,7.31,298.65,298.65,0,0,0,29.6-17.71Q408,978,430.85,1003.55q-7.73,6.45-15.78,12.5c2.75,1.23,5.55,2.42,8.43,3.56q6.45-5,12.68-10.2,9.33,10.2,19,20.08c4.45,1.06,9,2,13.65,2.87a3.87,3.87,0,0,0-1-1.44q-13.14-13.05-25.63-26.7,14.75-12.87,28.17-27.13,19.2,18.93,39.71,36.47-9.17,11.24-18.94,22,4.94.51,10,.86,7.71-8.7,15.09-17.69,11,9.21,22.33,18,5.8-.3,11.49-.81a4.41,4.41,0,0,0-1.09-1.21q-14.16-10.74-27.77-22.17,13.45-16.95,25.58-34.87,19.92,17.88,40.62,34.85l-11.2,19.85q5.26-1,10.38-2.11l7.12-12.62q5,4.08,10.14,8.1c3.09-.93,6.14-1.91,9.11-2.94q-7.68-6-15.28-12.18,11.55-20.49,23.12-41,19.65,14.8,40.25,28.32,3.41-2.58,6.49-5.3-21.91-14.28-42.78-30ZM436.94,998.36Q414.34,973.18,394,946.1a300.66,300.66,0,0,0,27.36-22.29q20.7,24.78,43.45,47.68Q451.55,985.59,436.94,998.36Zm78.16,9Q494.83,990,475.84,971.24A404,404,0,0,0,503.64,937q18.2,18.06,37.16,35.3Q528.64,990.31,515.1,1007.38Zm76.29-1.9Q570.94,988.67,551.26,971q12.48-19,23.4-39Q594,949,614.38,964.76,602.88,985.12,591.39,1005.48Z"/></g><path class="cls-2" d="M522.51,855.94c-98.07,0-182.39-30.22-219.61-73.51,3,13.75,9.69,43.7,16.7,74.05,2,8.85,7.25,25.33,14.81,31,44.85,33.42,112.45,46.18,188.08,46.18,76.8,0,145.32-18.13,190.15-52.44,7.29-5.58,12.35-17.12,14.4-25.73,6.84-28.69,13.09-56.92,16.19-74.31-2.64,3.18-17.11-9.36-19-5.41C702,822.8,614.41,855.94,522.51,855.94Z"/><path class="cls-3" d="M343.69,860.15c57.65,30.33,122.29,43.34,187.19,42,6.26-.12,6.29-9.87,0-9.75-63.17,1.27-126.12-11.17-182.27-40.7-5.55-2.92-10.49,5.49-4.92,8.41Z"/><path class="cls-3" d="M732.09,824.34c-57.87,43.18-129.28,66-201.21,68.1-6.26.18-6.29,9.93,0,9.75,57.2-1.63,114.14-16,164.65-43A331.7,331.7,0,0,0,737,832.76c5-3.71.11-12.18-4.92-8.42Z"/></g><g id="Arm_2" data-name="Arm 2"><path class="cls-15" d="M508.93,830.52S518.37,856,514,876.61,499.05,915.46,488.07,915s-23.27-35.62-17.56-63C483.9,837.32,508.93,830.52,508.93,830.52Z"/><path class="cls-16" d="M470.51,852c-2.33,11.22-1.65,23.74.72,34.65a194.52,194.52,0,0,0,43.83-18.75c.88-18.44-6.13-37.37-6.13-37.37S483.9,837.32,470.51,852Z"/></g><g id="Arm_1" data-name="Arm 1"><path class="cls-15" d="M368.5,823.64s8.78,23.67,4.7,42.86-13.88,36.13-24.09,35.72-21.64-33.13-16.33-58.62C345.23,830,368.5,823.64,368.5,823.64Z"/><path class="cls-16" d="M332.78,843.6c-2.47,11.84-1.32,25.24,1.64,36.24a200.41,200.41,0,0,0,30.39,9.62,81.82,81.82,0,0,0,8.39-23c4.08-19.19-4.7-42.86-4.7-42.86S345.23,830,332.78,843.6Z"/></g><g id="Head"><path class="cls-15" d="M372.86,658.68c-23.73,7.24-84.13,41.4-90.29,100.3s40.28,112.5,121.85,112.55c84.24.05,114.26-34.95,128-72.85s.2-91.23-39.35-120.09C454.41,650.37,413.74,646.21,372.86,658.68Z"/></g><g id="Face"><path class="cls-17" d="M357.12,821.52c6.73.14,11.3,3.89,10.78,8s-8.48,7.18-14.13,5.58-8.35-5.06-7.2-8.6S353,821.44,357.12,821.52Z"/><path class="cls-17" d="M440.67,821.52c6.72.14,11.29,3.89,10.78,8s-8.48,7.18-14.14,5.58-8.35-5.06-7.19-8.6S436.56,821.44,440.67,821.52Z"/><path class="cls-17" d="M382.64,855.9c2.88,3.14,6.42,6.45,11,6a7.48,7.48,0,0,0,5.24-2.7c.26-.33.94-1.68,1.36-1.79s.82.51,1.09.76c3.15,2.92,7.28,4.46,11.56,3.24a11.65,11.65,0,0,0,8-8.61c.62-2.82-3.72-4-4.34-1.2a7,7,0,0,1-6.1,5.7,7.26,7.26,0,0,1-4.54-1.12c-1.49-.95-2.47-2.48-4.21-3.08a4.55,4.55,0,0,0-4.88,1.37c-.92,1-1.41,2.37-2.81,2.81-3.34,1.06-6.27-2.42-8.24-4.56s-5.13,1-3.18,3.18Z"/><path class="cls-17" d="M347.57,803.57l20.21,2c5.76.58,5.72-8.42,0-9l-20.21-2c-5.76-.58-5.72,8.43,0,9Z"/><path class="cls-17" d="M427.37,806.76a92.57,92.57,0,0,1,17.24-2c5.78-.14,5.8-9.14,0-9A105.31,105.31,0,0,0,425,798.09c-5.66,1.22-3.27,9.9,2.39,8.67Z"/></g><g id="Ear_2" data-name="Ear 2"><path class="cls-15" d="M391.49,708.91s-9.66-83.75,0-125.46,41.27-50,56.63-42.58,17.12,45.22,11,72-36.53,98.39-36.53,98.39Z"/><path class="cls-9" d="M413.44,683.54c-5.17.14-3.95-49.27,0-73.42s15.39-43.22,27.23-40.71,5.7,37.64,1.89,53.15S420.61,683.34,413.44,683.54Z"/></g><g id="Ear_1" data-name="Ear 1"><path class="cls-15" d="M385.34,708.08s-25-68-54-83.8-63.36,6-78.58,20.79c-16.67,16.19-20.78,44,5.7,52,28.27,8.54,51.37-24.22,62.34-24.16s41.71,41.12,41.71,41.12Z"/><path class="cls-9" d="M318.16,673.46s16.69-12.88,20.79-12.57,21.06,25.76,18.72,28.54S329.57,669.05,318.16,673.46Z"/></g><g id="Balloon_1" data-name="Balloon 1"><ellipse class="cls-18" cx="537.65" cy="289.51" rx="318.73" ry="245.53"/><path class="cls-19" d="M537.65,494.1c-85.89,0-166.23-14.1-234.86-38.62C361.05,504.38,444.7,535,537.65,535s176.6-30.65,234.86-79.55C703.88,480,623.53,494.1,537.65,494.1Z"/><path class="cls-15" d="M268.52,157.93a228.13,228.13,0,0,0-29.33,45.27c53.2,49.41,166.84,83.54,298.46,83.54s245.26-34.13,298.46-83.54a228.57,228.57,0,0,0-29.33-45.27c-56.54,32.3-155.93,53.74-269.13,53.74S325.06,190.23,268.52,157.93Z"/><path class="cls-19" d="M815.45,324.42a35.61,35.61,0,0,1-7.06-2.76,52.08,52.08,0,0,0,2-20.44c-1-8.52-4.07-19.18-13.48-21.67-10.76-2.85-18.36,7.72-18.49,17.33-.12,9.23,4.08,18.1,9.92,25a43.73,43.73,0,0,0,4.51,4.61c-5.77,11.51-16,20.7-26.51,27.75-12.14,8.12-27,14.63-41.82,11a32.09,32.09,0,0,1-7.53-2.84,62.39,62.39,0,0,0,2.53-24.76c-.94-8.75-5.59-19.42-16.45-15.86-9.49,3.11-12.58,14.55-11.66,23.44a36.38,36.38,0,0,0,10.17,21.56c-14.54,30-48.25,40.6-79.57,37.64l-.13-.05a37.11,37.11,0,0,1-14.08-8,51.53,51.53,0,0,0,8-31.49c-.63-8.74-3.81-19.26-12.81-22.72s-16.88,3.06-20,11.23c-5.34,14.07-.43,31,8.23,43.38q-1.51,1.71-3.09,3.23c-11.08,10.6-26.21,17.35-41.07,20.55-15.12,3.26-31.81,2.24-45.13-6.2a49,49,0,0,1-14-13.51c7.79-8.61,13.89-19,16-30,1.59-8.28.63-18.14-7.15-23.08-8.8-5.58-19.78-.52-24.83,7.6-7.87,12.66-6.14,29.59,0,43.23-19.24,16.77-46.78,20.67-68.83,6.8A67.8,67.8,0,0,1,377.94,376c-.14-.31-.27-.63-.41-.94.91-.66,1.8-1.34,2.68-2,12.28-9.87,29.84-33.47,14.43-48.11-6.44-6.12-16.85-5.49-23.81-.65-8.29,5.76-11.14,16.19-11.31,25.82a68.64,68.64,0,0,0,2.59,19.65,72,72,0,0,1-18.16,6.7c-26.8,6-57.51-4.29-68.3-30.82,1.21-.62,2.41-1.28,3.58-2,13.42-8.4,26.13-27,18.18-43.14a16.22,16.22,0,0,0-21.89-7.34c-8.48,4.11-13.52,13.43-15.33,22.32a58,58,0,0,0-.09,22.25,39.48,39.48,0,0,1-13.7.6c-8.88-1.19-16.91-5.47-23.76-11.17q1.85,9.24,4.56,18.23c.88.44,1.75.87,2.65,1.26A54.34,54.34,0,0,0,263.69,350a66.53,66.53,0,0,0,10.36,17.39c12.7,15.37,32.64,23.07,52.24,23.59a84.13,84.13,0,0,0,40.28-9.15,86.1,86.1,0,0,0,11.51,18.31c11.29,13.74,27.58,23.74,45.3,26.17,17.54,2.4,35.65-2.56,50.11-12.66,1.73-1.22,3.45-2.52,5.14-3.9,11.92,15.8,29.78,24.5,49.57,25.34,24.07,1,53.77-9.55,71.7-28.52a50.4,50.4,0,0,0,17.65,10,7.14,7.14,0,0,0,2.09.56c36.37,4.24,75.27-9.6,92.42-42.7,15.23,7.59,33.77,5.06,49.05-2.27,16.85-8.08,33.62-21.67,42.46-38.53,13.28,6.23,29.32,6.17,43.28.84,1.59-.6,3.14-1.27,4.67-2q1.83-8,3-16.2C843.1,324.16,829.93,328.33,815.45,324.42Zm-543.22,8.43c-1.46-10.05-.4-21.55,7.48-27.35,5.35-3.94,7.45,2.05,7.09,6.7-.44,5.76-3.75,11.13-7.7,15.19A35.11,35.11,0,0,1,272.23,332.85ZM373.44,362c-.32-1.64-.58-3.29-.76-4.93-.72-6.58-1-15.21,3.6-20.58,3.09-3.61,9.89-5.08,11.11.88,1.3,6.37-3.67,13.52-7.49,18.09A57,57,0,0,1,373.44,362Zm108.28,26.37a42.24,42.24,0,0,1-1.61-6.82c-.93-6.23-.67-14.27,2.94-19.68,1.3-2,4.18-4.65,6.75-3.26,2,1.08,2.07,3.92,2,5.94C491.71,372.83,487.25,381.28,481.72,388.34ZM599,385.2a42.81,42.81,0,0,1-3-6.92c-1.93-5.85-3.19-12.84-1.51-18.89.39-1.4,1.41-5.15,3.26-5.35,2.12-.24,3.58,3.62,4.09,5.08C604.8,367.67,603.05,377,599,385.2Zm107.82-37c-.09,1.17-.25,2.33-.44,3.5-2.3-4.65-3.58-10.63-1.31-15.26.12-.25.64-.89,1-1.46.13.82.48,1.95.58,2.72A49.14,49.14,0,0,1,706.82,348.21Zm90.5-35.39a25.66,25.66,0,0,1-6-14.24c-.1-1.39-.15-6.88,2.42-6.66,2.18.19,3.26,6.35,3.54,7.79A36.11,36.11,0,0,1,797.32,312.82Z"/><ellipse class="cls-19" cx="537.65" cy="103.13" rx="118.79" ry="37.8"/><path class="cls-18" d="M572.23,253.5c9.25-4.91,17.48-13.16,28-15.18,11.57-2.21,22.82,5,33.49,8.3,9.94,3,20.14,2.79,28.9-3.29,8.16-5.66,14.1-15.15,23.28-19.26,10-4.46,20.52,2.47,29.64,6.14,11,4.42,22.48,4.65,31.13-4.49,7.41-7.84,11-20.86,21.95-24.66,13-4.49,27.35,1.88,40.62-1.93A33,33,0,0,0,827,186.38c-1.72-2.87-3.53-5.71-5.4-8.52-4,8.15-12.12,13.31-21.95,13.71-11.89.5-24.37-3.07-35.76,1.8-9.49,4-14.15,13-19.65,21.09-2.46,3.63-5.36,7.4-9.56,9.1-5,2-10.52.38-15.36-1.46-9.66-3.7-19-9.58-29.75-8.21-9.79,1.25-16.84,8.31-23.59,14.86-7.89,7.66-15.61,12.88-27,10-10.68-2.68-20.34-8.61-31.46-9.64-10.9-1-20.23,4.18-29,10-9,5.95-18.18,12.29-29.55,9.64-10.83-2.53-20-9.5-30.55-12.93-11.21-3.65-21.25-1.35-31.53,3.83s-19.83,11-31.32,5.68c-9.33-4.34-16.81-11.81-26.57-15.38-10.75-4-21-.39-30.89,4s-19.65,8.17-29.59,1.69c-8.72-5.7-14.83-14.64-23.05-21-10.06-7.75-20.48-8.18-32.64-5.88-6.73,1.27-14.28,3.22-20.55-.6-5.35-3.25-8.41-9.33-11.51-14.53-5.4-9.06-13.89-19.1-24.93-18.81q-3.12,4.56-6,9.23a4.05,4.05,0,0,0,3.25.26c13.14-4,20,15.3,26.08,23.4,7.05,9.37,16.55,12.7,28.09,11.1,6.42-.89,12.87-3,19.41-2.63,5,.3,9.37,2.47,13.3,5.45,7.39,5.61,13,13.21,20.27,19,8,6.38,17.21,9.27,27.38,6.88,10.93-2.56,20.92-11.19,32.51-10.46,10.8.68,19.48,9.79,28.52,14.74,9.59,5.25,19.44,6.14,29.65,2,10.74-4.36,20.75-12.89,33-10.61,10.69,2,19.84,8.83,29.93,12.54C551.87,259.67,562.21,258.81,572.23,253.5Z"/></g><g id="Cloud_2" data-name="Cloud 2"><path class="cls-20" d="M904.2,851.79c-34.54,3.19-55.76,34.05-60.59,64.12-35.56-8.56-85.61,5.93-85.17,21.73s43.46,24,113.27,23.19,113.71-20.11,115.46-39.43S959.07,846.72,904.2,851.79Z"/></g><g id="Cloud_1" data-name="Cloud 1"><path class="cls-20" d="M101.11,788.72c-21.28,14.58-.51,62.39,50,77.07S264.74,849,263.72,833.87s-43.84-33.72-71.88-18.79C182.67,782.6,136.79,764.25,101.11,788.72Z"/></g></svg>